{"accessors" : [{"bufferView" : 0, "byteOffset" : 0, "componentType" : 5125, "count" : 324864, "type" : "SCALAR", "max" : [221183], "min" : [0]}, {"bufferView" : 1, "byteOffset" : 0, "componentType" : 5126, "count" : 221184, "type" : "VEC3", "max" : [0.10000000149011612, 0.19744999706745148, 0.10000000149011612], "min" : [-0.10000000149011612, -0.0025500000920146704, -0.10000000149011612], "name" : "POSITION"}, {"bufferView" : 1, "byteOffset" : 12, "componentType" : 5126, "count" : 221184, "type" : "VEC2", "max" : [1, 0.5], "min" : [0, 0], "name" : "TEXCOORD_0"}, {"bufferView" : 1, "byteOffset" : 20, "componentType" : 5126, "count" : 221184, "type" : "VEC3", "max" : [1.0000044107437134, 1.0000044107437134, 1.0000044107437134], "min" : [-1.0000044107437134, -1.0000044107437134, -1.0000044107437134], "name" : "NORMAL"}], "asset" : {"generator" : "Aspose.3D 24.2.0", "version" : "2.0"}, "buffers" : [{"uri" : "buffer.bin", "byteLength" : 8377352}], "bufferViews" : [{"buffer" : 0, "byteOffset" : 0, "byteLength" : 1299456, "target" : 34963}, {"buffer" : 0, "byteOffset" : 1299460, "byteLength" : 7077888, "byteStride" : 32, "target" : 34962}], "meshes" : [{"primitives" : [{"attributes" : {"POSITION" : 1, "TEXCOORD_0" : 2, "NORMAL" : 3}, "indices" : 0, "mode" : 4}], "name" : ""}], "nodes" : [{"mesh" : 0, "name" : "Cylinder"}], "scene" : 0, "scenes" : [{"nodes" : [0]}]}