{"accessors" : [{"bufferView" : 0, "byteOffset" : 0, "componentType" : 5123, "count" : 12612, "type" : "SCALAR", "max" : [10352], "min" : [0]}, {"bufferView" : 1, "byteOffset" : 0, "componentType" : 5126, "count" : 10353, "type" : "VEC3", "max" : [27.496118545532227, 11.538370132446289, 28.853368759155273], "min" : [-44.33437728881836, -11.538370132446289, 0.4554999768733978], "name" : "POSITION"}, {"bufferView" : 1, "byteOffset" : 12, "componentType" : 5126, "count" : 10353, "type" : "VEC3", "max" : [1.0000044107437134, 1.0000044107437134, 1.0000044107437134], "min" : [-1.0000044107437134, -1.0000044107437134, -1.0000044107437134], "name" : "NORMAL"}], "asset" : {"generator" : "Aspose.3D 24.2.0", "version" : "2.0"}, "buffers" : [{"uri" : "buffer.bin", "byteLength" : 273704}], "bufferViews" : [{"buffer" : 0, "byteOffset" : 0, "byteLength" : 25224, "target" : 34963}, {"buffer" : 0, "byteOffset" : 25228, "byteLength" : 248472, "byteStride" : 24, "target" : 34962}], "meshes" : [{"primitives" : [{"attributes" : {"POSITION" : 1, "NORMAL" : 2}, "indices" : 0, "mode" : 4}], "name" : ""}], "nodes" : [{"mesh" : 0, "name" : "ASCII"}], "scene" : 0, "scenes" : [{"nodes" : [0]}]}